# Blender v2.62 (sub 0) OBJ File: ''
# www.blender.org
o Mesh_Mesh.004_Mesh_Cube_Cube.001
v 199.499283 0.066839 37.787704
v 199.680267 0.000965 36.474136
v 199.680267 0.000833 204.467957
v 199.498901 0.066843 204.467957
v 212.222076 75.535049 37.787716
v 212.222427 75.534805 204.467972
v 212.707367 73.543686 204.467972
v 212.707367 73.543808 36.474148
vt 0.000000 0.000000
vt 1.000000 0.000000
vt 1.000000 1.000000
vt 0.000000 1.000000
vn -0.342021 -0.939692 -0.000001
vn 0.971581 0.236708 -0.000001
vn -0.920137 0.159005 -0.357863
vn 0.984671 -0.174421 -0.000000
vn -0.000000 -0.000000 1.000000
vn -0.986085 0.166244 0.000000
s off
f 1/1/1 2/2/1 3/3/1 4/4/1
f 5/1/2 6/2/2 7/3/2 8/4/2
f 1/1/3 5/2/3 8/3/3 2/4/3
f 2/1/4 8/2/4 7/3/4 3/4/4
f 3/1/5 7/2/5 6/3/5 4/4/5
f 5/1/6 1/2/6 4/3/6 6/4/6
